<mxfile host="app.diagrams.net" modified="2024-02-28T21:41:41.955Z" agent="Mozilla/5.0 (Macintosh; Intel Mac OS X 10_15_7) AppleWebKit/537.36 (KHTML, like Gecko) Chrome/121.0.0.0 Safari/537.36 OPR/107.0.0.0" version="23.1.8" etag="x7jisz0L89kTV0b68llu" type="github">
  <diagram name="Page-1" id="cAllxoUtXUQDk5VsIIuq">
    <mxGraphModel>
      <root>
        <mxCell id="0" />
        <mxCell id="1" parent="0" />
      </root>
    </mxGraphModel>
  </diagram>
</mxfile>
